<svg width="139" height="34" viewBox="0 0 139 34" fill="none" xmlns="http://www.w3.org/2000/svg">
<g filter="url(#filter0_f_1159_699)">
<circle cx="17" cy="17" r="13" fill="#FFC4A9" fill-opacity="0.6"/>
</g>
<path d="M16.0909 10.6364V7H17.9091V10.6364H16.0909ZM22.1364 13.1364L20.8864 11.8864L23.4318 9.27273L24.7045 10.5682L22.1364 13.1364ZM23.3636 17.9091V16.0909H27V17.9091H23.3636ZM16.0909 27V23.3636H17.9091V27H16.0909ZM11.8636 13.0909L9.27273 10.5682L10.5682 9.29545L13.1364 11.8636L11.8636 13.0909ZM23.4091 24.7273L20.8864 22.1136L22.1136 20.8864L24.7045 23.3864L23.4091 24.7273ZM7 17.9091V16.0909H10.6364V17.9091H7ZM10.5682 24.7273L9.29545 23.4318L11.8409 20.8864L12.5 21.5L13.1591 22.1364L10.5682 24.7273ZM13.1364 20.8636C12.0758 19.803 11.5455 18.5152 11.5455 17C11.5455 15.4848 12.0758 14.197 13.1364 13.1364C14.197 12.0758 15.4848 11.5455 17 11.5455C18.5152 11.5455 19.803 12.0758 20.8636 13.1364C21.9242 14.197 22.4545 15.4848 22.4545 17C22.4545 18.5152 21.9242 19.803 20.8636 20.8636C19.803 21.9242 18.5152 22.4545 17 22.4545C15.4848 22.4545 14.197 21.9242 13.1364 20.8636ZM19.5682 19.5682C20.2803 18.8561 20.6364 18 20.6364 17C20.6364 16 20.2803 15.1439 19.5682 14.4318C18.8561 13.7197 18 13.3636 17 13.3636C16 13.3636 15.1439 13.7197 14.4318 14.4318C13.7197 15.1439 13.3636 16 13.3636 17C13.3636 18 13.7197 18.8561 14.4318 19.5682C15.1439 20.2803 16 20.6364 17 20.6364C18 20.6364 18.8561 20.2803 19.5682 19.5682Z" fill="#4A423C"/>
<g filter="url(#filter1_f_1159_699)">
<circle cx="87" cy="17" r="13" fill="#DACCE8" fill-opacity="0.6"/>
</g>
<path d="M89 25H86.6364L87.0909 24.7188C87.3939 24.5312 87.7235 24.3212 88.0795 24.0887C88.4356 23.8562 88.7652 23.6462 89.0682 23.4587L89.5227 23.1775C90.75 23.0875 91.8826 22.72 92.9205 22.075C93.9583 21.43 94.7803 20.5675 95.3864 19.4875C94.0833 19.3675 92.8485 19.0412 91.6818 18.5087C90.5152 17.9762 89.4697 17.2525 88.5455 16.3375C87.6212 15.4225 86.8864 14.3875 86.3409 13.2325C85.7955 12.0775 85.4697 10.855 85.3636 9.565C84.197 10.21 83.2841 11.0988 82.625 12.2312C81.9659 13.3637 81.6364 14.59 81.6364 15.91V16.18L81.3636 16.3038C81.1818 16.3862 80.9811 16.4725 80.7614 16.5625C80.5417 16.6525 80.3409 16.7388 80.1591 16.8212L79.8864 16.945C79.8561 16.78 79.8371 16.6075 79.8295 16.4275C79.822 16.2475 79.8182 16.075 79.8182 15.91C79.8182 13.72 80.5227 11.7887 81.9318 10.1163C83.3409 8.44375 85.1364 7.405 87.3182 7C87.0455 8.485 87.1288 9.93625 87.5682 11.3537C88.0076 12.7712 88.7652 14.0125 89.8409 15.0775C90.9167 16.1425 92.1705 16.8925 93.6023 17.3275C95.0341 17.7625 96.5 17.845 98 17.575C97.6061 19.735 96.5606 21.5125 94.8636 22.9075C93.1667 24.3025 91.2121 25 89 25ZM82.5455 23.2H86.6364C87.0152 23.2 87.3371 23.0688 87.6023 22.8062C87.8674 22.5437 88 22.225 88 21.85C88 21.475 87.8712 21.1562 87.6136 20.8937C87.3561 20.6312 87.0455 20.5 86.6818 20.5H85.5L85.0455 19.42C84.8333 18.925 84.5 18.5312 84.0455 18.2387C83.5909 17.9462 83.0909 17.8 82.5455 17.8C81.7879 17.8 81.1439 18.0587 80.6136 18.5762C80.0833 19.0937 79.8182 19.735 79.8182 20.5C79.8182 21.25 80.0833 21.8875 80.6136 22.4125C81.1439 22.9375 81.7879 23.2 82.5455 23.2ZM82.5455 25C81.2879 25 80.2159 24.5613 79.3295 23.6838C78.4432 22.8062 78 21.745 78 20.5C78 19.255 78.4432 18.1938 79.3295 17.3162C80.2159 16.4388 81.2879 16 82.5455 16C83.4545 16 84.2841 16.2437 85.0341 16.7312C85.7841 17.2188 86.3409 17.875 86.7045 18.7C87.5682 18.73 88.303 19.0487 88.9091 19.6562C89.5152 20.2638 89.8182 20.995 89.8182 21.85C89.8182 22.72 89.5076 23.4625 88.8864 24.0775C88.2652 24.6925 87.5152 25 86.6364 25H82.5455Z" fill="#4A423C"/>
<g filter="url(#filter2_f_1159_699)">
<circle cx="122" cy="17" r="13" fill="#AABCCE" fill-opacity="0.6"/>
</g>
<path d="M123.95 26.8815C123.7 27.0148 123.446 27.0356 123.188 26.944C122.929 26.8524 122.733 26.6817 122.6 26.432L121.1 23.4347C120.967 23.185 120.946 22.931 121.038 22.6729C121.129 22.4148 121.3 22.2192 121.55 22.086C121.8 21.9528 122.054 21.932 122.312 22.0235C122.571 22.1151 122.767 22.2858 122.9 22.5356L124.4 25.5328C124.533 25.7826 124.554 26.0365 124.463 26.2946C124.371 26.5527 124.2 26.7483 123.95 26.8815ZM129.95 26.8815C129.7 27.0148 129.446 27.0356 129.188 26.944C128.929 26.8524 128.733 26.6817 128.6 26.432L127.1 23.4347C126.967 23.185 126.946 22.931 127.038 22.6729C127.129 22.4148 127.3 22.2192 127.55 22.086C127.8 21.9528 128.054 21.932 128.313 22.0235C128.571 22.1151 128.767 22.2858 128.9 22.5356L130.4 25.5328C130.533 25.7826 130.554 26.0365 130.462 26.2946C130.371 26.5527 130.2 26.7483 129.95 26.8815ZM117.95 26.8815C117.7 27.0148 117.446 27.0356 117.187 26.944C116.929 26.8524 116.733 26.6817 116.6 26.432L115.1 23.4347C114.967 23.185 114.946 22.931 115.037 22.6729C115.129 22.4148 115.3 22.2192 115.55 22.086C115.8 21.9528 116.054 21.932 116.312 22.0235C116.571 22.1151 116.767 22.2858 116.9 22.5356L118.4 25.5328C118.533 25.7826 118.554 26.0365 118.463 26.2946C118.371 26.5527 118.2 26.7483 117.95 26.8815ZM117.5 20.987C115.983 20.987 114.687 20.45 113.612 19.376C112.537 18.302 112 17.0074 112 15.4921C112 14.11 112.458 12.9028 113.375 11.8704C114.292 10.8381 115.425 10.2303 116.775 10.0471C117.308 9.09801 118.037 8.35286 118.962 7.8117C119.887 7.27053 120.9 6.99995 122 6.99995C123.5 6.99995 124.804 7.47867 125.913 8.43612C127.021 9.39357 127.692 10.5883 127.925 12.0203C129.075 12.1202 130.042 12.5948 130.825 13.444C131.608 14.2932 132 15.3089 132 16.4912C132 17.74 131.563 18.8015 130.688 19.6757C129.813 20.5499 128.75 20.987 127.5 20.987H117.5ZM117.5 18.9889H127.5C128.2 18.9889 128.792 18.7474 129.275 18.2645C129.758 17.7816 130 17.1905 130 16.4912C130 15.7918 129.758 15.2007 129.275 14.7178C128.792 14.2349 128.2 13.9935 127.5 13.9935H126V12.9944C126 11.8954 125.608 10.9546 124.825 10.172C124.042 9.38941 123.1 8.9981 122 8.9981C121.2 8.9981 120.471 9.21457 119.813 9.6475C119.154 10.0804 118.658 10.6632 118.325 11.3959L118.075 11.9953H117.45C116.5 12.0286 115.687 12.3825 115.012 13.0568C114.337 13.7312 114 14.543 114 15.4921C114 16.4579 114.342 17.2821 115.025 17.9648C115.708 18.6475 116.533 18.9889 117.5 18.9889Z" fill="#4A423C"/>
<g filter="url(#filter3_f_1159_699)">
<circle cx="52" cy="17" r="13" fill="#D2F1FF" fill-opacity="0.6"/>
</g>
<path d="M47 24C45.6212 24 44.4432 23.5078 43.4659 22.5234C42.4886 21.5391 42 20.3359 42 18.9141C42 17.6953 42.3561 16.6094 43.0682 15.6563C43.7803 14.7031 44.7121 14.0938 45.8636 13.8281C46.2424 12.3906 47 11.2266 48.1364 10.3359C49.2727 9.44531 50.5606 9 52 9C53.7727 9 55.2765 9.63672 56.5114 10.9102C57.7462 12.1836 58.3636 13.7344 58.3636 15.5625C59.4091 15.6875 60.2765 16.1523 60.9659 16.957C61.6553 17.7617 62 18.7031 62 19.7812C62 20.9531 61.6023 21.9492 60.8068 22.7695C60.0114 23.5898 59.0455 24 57.9091 24H47ZM47 22.125H57.9091C58.5455 22.125 59.0833 21.8984 59.5227 21.4453C59.9621 20.9922 60.1818 20.4375 60.1818 19.7812C60.1818 19.125 59.9621 18.5703 59.5227 18.1172C59.0833 17.6641 58.5455 17.4375 57.9091 17.4375H56.5455V15.5625C56.5455 14.2656 56.1023 13.1602 55.2159 12.2461C54.3295 11.332 53.2576 10.875 52 10.875C50.7424 10.875 49.6705 11.332 48.7841 12.2461C47.8977 13.1602 47.4545 14.2656 47.4545 15.5625H47C46.1212 15.5625 45.3712 15.8828 44.75 16.5234C44.1288 17.1641 43.8182 17.9375 43.8182 18.8438C43.8182 19.75 44.1288 20.5234 44.75 21.1641C45.3712 21.8047 46.1212 22.125 47 22.125Z" fill="#4A423C"/>
<defs>
<filter id="filter0_f_1159_699" x="0" y="0" width="34" height="34" filterUnits="userSpaceOnUse" color-interpolation-filters="sRGB">
<feFlood flood-opacity="0" result="BackgroundImageFix"/>
<feBlend mode="normal" in="SourceGraphic" in2="BackgroundImageFix" result="shape"/>
<feGaussianBlur stdDeviation="2" result="effect1_foregroundBlur_1159_699"/>
</filter>
<filter id="filter1_f_1159_699" x="70" y="0" width="34" height="34" filterUnits="userSpaceOnUse" color-interpolation-filters="sRGB">
<feFlood flood-opacity="0" result="BackgroundImageFix"/>
<feBlend mode="normal" in="SourceGraphic" in2="BackgroundImageFix" result="shape"/>
<feGaussianBlur stdDeviation="2" result="effect1_foregroundBlur_1159_699"/>
</filter>
<filter id="filter2_f_1159_699" x="105" y="0" width="34" height="34" filterUnits="userSpaceOnUse" color-interpolation-filters="sRGB">
<feFlood flood-opacity="0" result="BackgroundImageFix"/>
<feBlend mode="normal" in="SourceGraphic" in2="BackgroundImageFix" result="shape"/>
<feGaussianBlur stdDeviation="2" result="effect1_foregroundBlur_1159_699"/>
</filter>
<filter id="filter3_f_1159_699" x="35" y="0" width="34" height="34" filterUnits="userSpaceOnUse" color-interpolation-filters="sRGB">
<feFlood flood-opacity="0" result="BackgroundImageFix"/>
<feBlend mode="normal" in="SourceGraphic" in2="BackgroundImageFix" result="shape"/>
<feGaussianBlur stdDeviation="2" result="effect1_foregroundBlur_1159_699"/>
</filter>
</defs>
</svg>
