<svg width="24" height="24" viewBox="0 0 24 24" fill="none" xmlns="http://www.w3.org/2000/svg">
<g clip-path="url(#clip0_952_12107)">
<path d="M13.0905 1.09091C13.0905 0.488417 12.6021 0 11.9996 0C11.3972 0 10.9087 0.488417 10.9087 1.09091H11.9996H13.0905ZM11.9996 1.16364L13.0842 1.28087L13.0905 1.22242V1.16364H11.9996ZM11.9139 22.9091V24H12.3143L12.6197 23.7409L11.9139 22.9091ZM11.9996 22.8364H13.0905V20.4801L11.2939 22.0045L11.9996 22.8364ZM10.9087 22.9091C10.9087 23.5116 11.3972 24 11.9996 24C12.6021 24 13.0905 23.5116 13.0905 22.9091H11.9996H10.9087ZM11.9996 1.09091H10.9087V1.16364H11.9996H13.0905V1.09091H11.9996ZM11.9996 1.16364L10.915 1.0464L10.7951 2.15549L11.8798 2.27273L12.9644 2.38996L13.0842 1.28087L11.9996 1.16364ZM11.8798 2.27273L10.7951 2.15549C10.7139 2.90768 10.6732 3.52983 10.6884 3.99041L11.7787 3.95455L12.869 3.91868C12.859 3.61562 12.8858 3.11656 12.9644 2.38996L11.8798 2.27273ZM11.7787 3.95455L10.6884 3.99041L10.7072 4.56314L11.7975 4.52727L12.8878 4.4914L12.869 3.91868L11.7787 3.95455ZM11.7975 4.52727L10.7072 4.56314L10.726 5.13587L11.8164 5.1L12.9067 5.06413L12.8878 4.4914L11.7975 4.52727ZM11.8164 5.1L10.726 5.13587C10.7411 5.59247 10.8028 6.04665 10.9098 6.49743L11.9712 6.24545L13.0326 5.99348C12.9583 5.68062 12.9168 5.37117 12.9067 5.06413L11.8164 5.1ZM11.9712 6.24545L10.9098 6.49743L11.0457 7.07015L12.1071 6.81818L13.1686 6.56621L13.0326 5.99348L11.9712 6.24545ZM12.1071 6.81818L11.0457 7.07015L11.1817 7.64291L12.2431 7.39091L13.3045 7.13894L13.1686 6.56621L12.1071 6.81818ZM12.2431 7.39091L11.1817 7.64291C11.2262 7.83047 11.221 8.01316 11.1591 8.21185L12.2006 8.53636L13.2421 8.86087C13.4182 8.29593 13.4413 7.71498 13.3045 7.13894L12.2431 7.39091ZM12.2006 8.53636L11.1591 8.21185L10.9806 8.78458L12.0222 9.10909L13.0637 9.4336L13.2421 8.86087L12.2006 8.53636ZM12.0222 9.10909L10.9806 8.78458L10.8022 9.35731L11.8437 9.68182L12.8852 10.0063L13.0637 9.4336L12.0222 9.10909ZM11.8437 9.68182L10.8022 9.35731C10.6256 9.924 10.6038 10.5066 10.7436 11.0839L11.8038 10.8273L12.8641 10.5706C12.819 10.3843 12.8238 10.2033 12.8852 10.0063L11.8437 9.68182ZM11.8038 10.8273L10.7436 11.0839L10.8822 11.6567L11.9425 11.4L13.0028 11.1433L12.8641 10.5706L11.8038 10.8273ZM11.9425 11.4L10.8822 11.6567L11.0208 12.2294L12.0811 11.9727L13.1414 11.7161L13.0028 11.1433L11.9425 11.4ZM12.0811 11.9727L11.0208 12.2294C11.0808 12.4772 11.0913 12.7176 11.0557 12.9581L12.1348 13.1182L13.2139 13.2783C13.2915 12.7551 13.2662 12.2319 13.1414 11.7161L12.0811 11.9727ZM12.1348 13.1182L11.0557 12.9581L10.9708 13.5308L12.0498 13.6909L13.1289 13.851L13.2139 13.2783L12.1348 13.1182ZM12.0498 13.6909L10.9708 13.5308L10.8858 14.1036L11.9649 14.2636L13.044 14.4237L13.1289 13.851L12.0498 13.6909ZM11.9649 14.2636L10.8858 14.1036C10.8141 14.5872 10.8112 15.0726 10.8772 15.5567L11.9582 15.4091L13.039 15.2615C13.0009 14.982 13.0025 14.7037 13.044 14.4237L11.9649 14.2636ZM11.9582 15.4091L10.8772 15.5567L10.9554 16.1294L12.0364 15.9818L13.1172 15.8343L13.039 15.2615L11.9582 15.4091ZM12.0364 15.9818L10.9554 16.1294L11.0336 16.7021L12.1145 16.5545L13.1954 16.407L13.1172 15.8343L12.0364 15.9818ZM12.1145 16.5545L11.0336 16.7021C11.0791 17.0352 11.1016 17.3674 11.1013 17.6991L12.1922 17.7L13.2831 17.7009C13.2835 17.2689 13.2542 16.8375 13.1954 16.407L12.1145 16.5545ZM12.1922 17.7L11.1013 17.6991L11.1009 18.2719L12.1918 18.2727L13.2827 18.2736L13.2831 17.7009L12.1922 17.7ZM12.1918 18.2727L11.1009 18.2719L11.1004 18.8446L12.1913 18.8455L13.2822 18.8463L13.2827 18.2736L12.1918 18.2727ZM12.1913 18.8455L11.1004 18.8446C11.1001 19.1777 11.0776 19.5115 11.0328 19.846L12.114 19.9909L13.1953 20.1358C13.2528 19.7067 13.2818 19.2768 13.2822 18.8463L12.1913 18.8455ZM12.114 19.9909L11.0328 19.846L10.9561 20.4188L12.0373 20.5636L13.1185 20.7085L13.1953 20.1358L12.114 19.9909ZM12.0373 20.5636L10.9561 20.4188L10.8793 20.9915L11.9605 21.1364L13.0417 21.2812L13.1185 20.7085L12.0373 20.5636ZM11.9605 21.1364L10.8793 20.9915C10.827 21.3817 10.7916 21.7102 10.7801 21.9586L11.8699 22.0091L12.9596 22.0596C12.9666 21.908 12.9917 21.6547 13.0417 21.2812L11.9605 21.1364ZM11.8699 22.0091L10.7801 21.9586L10.7662 22.2586L11.856 22.3091L12.9457 22.3596L12.9596 22.0596L11.8699 22.0091ZM11.856 22.3091L10.7662 22.2586L10.7524 22.5586L11.8421 22.6091L12.9318 22.6596L12.9457 22.3596L11.856 22.3091ZM11.8421 22.6091L10.7524 22.5586C10.7472 22.6702 10.7439 22.8087 10.7565 22.9389C10.7617 22.9921 10.7761 23.128 10.8342 23.2799C10.8519 23.3262 11.1044 24 11.871 24V22.9091V21.8182C12.2268 21.8182 12.4941 21.9873 12.6507 22.1515C12.787 22.2945 12.8483 22.4383 12.8721 22.5008C12.9206 22.6276 12.9279 22.7261 12.9282 22.7292C12.9312 22.7596 12.9277 22.748 12.9318 22.6596L11.8421 22.6091ZM11.871 22.9091V24H11.9139V22.9091V21.8182H11.871V22.9091ZM11.9139 22.9091L12.6197 23.7409L12.7054 23.6682L11.9996 22.8364L11.2939 22.0045L11.2081 22.0772L11.9139 22.9091ZM11.9996 22.8364H10.9087V22.9091H11.9996H13.0905V22.8364H11.9996Z" fill="white"/>
<path d="M1.09091 10.9089C0.488417 10.9089 0 11.3973 0 11.9998C0 12.6023 0.488417 13.0907 1.09091 13.0907V11.9998V10.9089ZM1.16364 11.9998L1.32705 10.9212L1.24581 10.9089H1.16364V11.9998ZM22.9091 12.1057H24V11.767L23.8082 11.4879L22.9091 12.1057ZM22.8364 11.9998V10.9089H20.7633L21.9372 12.6175L22.8364 11.9998ZM22.9091 13.0907C23.5116 13.0907 24 12.6023 24 11.9998C24 11.3973 23.5116 10.9089 22.9091 10.9089V11.9998V13.0907ZM1.09091 11.9998V13.0907H1.16364V11.9998V10.9089H1.09091V11.9998ZM1.16364 11.9998L1.00022 13.0784L2.10931 13.2464L2.27273 12.1679L2.43615 11.0892L1.32705 10.9212L1.16364 11.9998ZM2.27273 12.1679L2.10931 13.2464C2.8866 13.3642 3.62382 13.3999 4.22258 13.2482L3.95455 12.1907L3.68651 11.1332C3.52164 11.175 3.13764 11.1955 2.43615 11.0892L2.27273 12.1679ZM3.95455 12.1907L4.22258 13.2482L4.79531 13.103L4.52727 12.0455L4.25924 10.9881L3.68651 11.1332L3.95455 12.1907ZM4.52727 12.0455L4.79531 13.103L5.36804 12.9578L5.1 11.9004L4.83196 10.8429L4.25924 10.9881L4.52727 12.0455ZM5.1 11.9004L5.36804 12.9578C5.62408 12.893 5.87203 12.877 6.11839 12.9058L6.24545 11.8223L6.37252 10.7388C5.85524 10.6782 5.33956 10.7143 4.83196 10.8429L5.1 11.9004ZM6.24545 11.8223L6.11839 12.9058L6.69112 12.973L6.81818 11.8895L6.94524 10.806L6.37252 10.7388L6.24545 11.8223ZM6.81818 11.8895L6.69112 12.973L7.26385 13.0402L7.39091 11.9567L7.51796 10.8732L6.94524 10.806L6.81818 11.8895ZM7.39091 11.9567L7.26385 13.0402C7.64102 13.0844 8.01826 13.1311 8.39542 13.1802L8.53636 12.0985L8.67731 11.0167C8.29084 10.9663 7.90444 10.9186 7.51796 10.8732L7.39091 11.9567ZM8.53636 12.0985L8.39542 13.1802L8.96815 13.2548L9.10909 12.1731L9.25004 11.0914L8.67731 11.0167L8.53636 12.0985ZM9.10909 12.1731L8.96815 13.2548L9.54087 13.3295L9.68182 12.2477L9.82276 11.166L9.25004 11.0914L9.10909 12.1731ZM9.68182 12.2477L9.54087 13.3295C10.0901 13.401 10.6349 13.3458 11.164 13.1741L10.8273 12.1364L10.4905 11.0988C10.256 11.1749 10.0372 11.1939 9.82276 11.166L9.68182 12.2477ZM10.8273 12.1364L11.164 13.1741L11.7367 12.9882L11.4 11.9506L11.0633 10.913L10.4905 11.0988L10.8273 12.1364ZM11.4 11.9506L11.7367 12.9882L12.3095 12.8024L11.9727 11.7647L11.636 10.7271L11.0633 10.913L11.4 11.9506ZM11.9727 11.7647L12.3095 12.8024C12.5394 12.7277 12.7532 12.7108 12.9633 12.7409L13.1182 11.661L13.273 10.5812C12.7195 10.5018 12.1697 10.5539 11.636 10.7271L11.9727 11.7647ZM13.1182 11.661L12.9633 12.7409L13.5361 12.823L13.6909 11.7431L13.8457 10.6633L13.273 10.5812L13.1182 11.661ZM13.6909 11.7431L13.5361 12.823L14.1088 12.9051L14.2636 11.8252L14.4185 10.7454L13.8457 10.6633L13.6909 11.7431ZM14.2636 11.8252L14.1088 12.9051C14.4644 12.9562 14.8205 13.0204 15.1772 13.098L15.4091 12.032L15.641 10.966C15.234 10.8775 14.8265 10.8039 14.4185 10.7454L14.2636 11.8252ZM15.4091 12.032L15.1772 13.098L15.7499 13.2226L15.9818 12.1567L16.2137 11.0907L15.641 10.966L15.4091 12.032ZM15.9818 12.1567L15.7499 13.2226L16.3226 13.3472L16.5545 12.2812L16.7865 11.2153L16.2137 11.0907L15.9818 12.1567ZM16.5545 12.2812L16.3226 13.3472C16.8125 13.4538 17.3076 13.4845 17.8039 13.4371L17.7 12.3511L17.5961 11.2652C17.3287 11.2908 17.0602 11.2748 16.7865 11.2153L16.5545 12.2812ZM17.7 12.3511L17.8039 13.4371L18.3766 13.3823L18.2727 12.2964L18.1689 11.2104L17.5961 11.2652L17.7 12.3511ZM18.2727 12.2964L18.3766 13.3823L18.9493 13.3276L18.8455 12.2416L18.7416 11.1556L18.1689 11.2104L18.2727 12.2964ZM18.8455 12.2416L18.9493 13.3276C19.3217 13.2919 19.6941 13.2612 20.0665 13.2354L19.9909 12.1471L19.9153 11.0588C19.5241 11.086 19.1328 11.1183 18.7416 11.1556L18.8455 12.2416ZM19.9909 12.1471L20.0665 13.2354L20.6392 13.1956L20.5636 12.1073L20.4881 11.019L19.9153 11.0588L19.9909 12.1471ZM20.5636 12.1073L20.6392 13.1956L21.2119 13.1558L21.1364 12.0675L21.0608 10.9792L20.4881 11.019L20.5636 12.1073ZM21.1364 12.0675L21.2119 13.1558C21.5711 13.1308 21.7655 13.14 21.8439 13.152L22.0091 12.0737L22.1743 10.9954C21.8527 10.9461 21.4652 10.9511 21.0608 10.9792L21.1364 12.0675ZM22.0091 12.0737L21.8439 13.152L22.1439 13.198L22.3091 12.1196L22.4743 11.0413L22.1743 10.9954L22.0091 12.0737ZM22.3091 12.1196L22.1439 13.198L22.4439 13.2439L22.6091 12.1655L22.7743 11.0872L22.4743 11.0413L22.3091 12.1196ZM22.6091 12.1655L22.4439 13.2439C22.5569 13.2612 22.7097 13.2809 22.8595 13.2774C22.9196 13.276 23.0868 13.2705 23.2744 13.1999C23.4566 13.1314 24 12.8444 24 12.1586H22.9091H21.8182C21.8182 11.8756 21.9291 11.6183 22.1033 11.4298C22.2555 11.2651 22.42 11.1903 22.5063 11.1578C22.6689 11.0966 22.7986 11.0964 22.8087 11.0962C22.8585 11.095 22.8613 11.1006 22.7743 11.0872L22.6091 12.1655ZM22.9091 12.1586H24V12.1057H22.9091H21.8182V12.1586H22.9091ZM22.9091 12.1057L23.8082 11.4879L23.7355 11.382L22.8364 11.9998L21.9372 12.6175L22.01 12.7234L22.9091 12.1057ZM22.8364 11.9998V13.0907H22.9091V11.9998V10.9089H22.8364V11.9998Z" fill="white"/>
</g>
<defs>
<clipPath id="clip0_952_12107">
<rect width="24" height="24" fill="white"/>
</clipPath>
</defs>
</svg>
